<?xml version="1.0" encoding="UTF-8"?>
<svg version="1.1" xmlns="http://www.w3.org/2000/svg" width="512" height="512">
<path d="M0 0 C0.75877441 0.20898926 1.51754883 0.41797852 2.29931641 0.63330078 C24.01946503 6.75197527 42.76276485 18.43483584 59 34 C59.81984375 34.75667969 60.6396875 35.51335937 61.484375 36.29296875 C82.04604528 55.86486919 93.85646693 82.45721002 99 110 C99.1750708 110.92828613 99.3501416 111.85657227 99.53051758 112.81298828 C102.16024593 130.66450878 100.94452073 150.73396093 96 168 C95.79101074 168.75877441 95.58202148 169.51754883 95.36669922 170.29931641 C89.24802473 192.01946503 77.56516416 210.76276485 62 227 C61.24332031 227.81984375 60.48664063 228.6396875 59.70703125 229.484375 C40.13513081 250.04604528 13.54278998 261.85646693 -14 267 C-14.92828613 267.1750708 -15.85657227 267.3501416 -16.81298828 267.53051758 C-34.66450878 270.16024593 -54.73396093 268.94452073 -72 264 C-73.13816162 263.68651611 -73.13816162 263.68651611 -74.29931641 263.36669922 C-96.01946503 257.24802473 -114.76276485 245.56516416 -131 230 C-132.22976562 228.86498047 -132.22976562 228.86498047 -133.484375 227.70703125 C-154.04604528 208.13513081 -165.85646693 181.54278998 -171 154 C-171.1750708 153.07171387 -171.3501416 152.14342773 -171.53051758 151.18701172 C-174.16024593 133.33549122 -172.94452073 113.26603907 -168 96 C-167.79101074 95.24122559 -167.58202148 94.48245117 -167.36669922 93.70068359 C-161.24802473 71.98053497 -149.56516416 53.23723515 -134 37 C-133.24332031 36.18015625 -132.48664063 35.3603125 -131.70703125 34.515625 C-112.13513081 13.95395472 -85.54278998 2.14353307 -58 -3 C-56.6075708 -3.2626062 -56.6075708 -3.2626062 -55.18701172 -3.53051758 C-37.33549122 -6.16024593 -17.26603907 -4.94452073 0 0 Z " fill="#FEBB33" transform="translate(292,124)"/>
<path d="M0 0 C0 89.76 0 179.52 0 272 C-18.61978417 272 -18.61978417 272 -25.875 270.375 C-26.70813721 270.19606201 -27.54127441 270.01712402 -28.3996582 269.83276367 C-54.09250307 264.07004159 -75.97407756 252.23842565 -95 234 C-96.22976562 232.86498047 -96.22976562 232.86498047 -97.484375 231.70703125 C-118.04604528 212.13513081 -129.85646693 185.54278998 -135 158 C-135.1750708 157.07171387 -135.3501416 156.14342773 -135.53051758 155.18701172 C-138.16024593 137.33549122 -136.94452073 117.26603907 -132 100 C-131.79101074 99.24122559 -131.58202148 98.48245117 -131.36669922 97.70068359 C-125.24802473 75.98053497 -113.56516416 57.23723515 -98 41 C-97.24332031 40.18015625 -96.48664063 39.3603125 -95.70703125 38.515625 C-70.79945684 12.34845058 -35.47848479 0 0 0 Z " fill="#5C5F66" transform="translate(256,120)"/>
<path d="M0 0 C4.71878688 1.69164058 7.20582817 3.86048618 10 8 C11.57774533 12.733236 12.23076546 17.49101407 9.96434021 22.11125183 C5.84576077 28.18804925 1.11267789 33.32419317 -4.08984375 38.48828125 C-4.95259415 39.35390182 -5.81534454 40.2195224 -6.70423889 41.1113739 C-8.51846197 42.92762701 -10.33643315 44.74014321 -12.15795898 46.54907227 C-14.93631901 49.31132586 -17.69825654 52.08927685 -20.45898438 54.86914062 C-22.23080943 56.63898383 -24.00356458 58.40789651 -25.77734375 60.17578125 C-26.5973436 61.00185379 -27.41734344 61.82792633 -28.26219177 62.67903137 C-37.85762193 72.15826878 -37.85762193 72.15826878 -44.44140625 73.49609375 C-49.326167 73.36115561 -52.83293779 72.81034428 -57 70 C-60.59029228 66.11860294 -62.13744598 63.02004742 -62.3125 57.75 C-62.36857422 56.65945313 -62.36857422 56.65945313 -62.42578125 55.546875 C-61.06514742 47.40803776 -54.2385065 41.80145653 -48.66796875 36.26953125 C-47.75799637 35.35668869 -46.84802399 34.44384613 -45.91047668 33.50334167 C-43.9912922 31.57975575 -42.066843 29.66164496 -40.13842773 27.74731445 C-37.68054544 25.30652268 -35.23638152 22.85250582 -32.796031 20.39420033 C-30.44814711 18.03280206 -28.0888244 15.68297171 -25.73046875 13.33203125 C-24.42543648 12.01788994 -24.42543648 12.01788994 -23.09403992 10.67720032 C-16.11773629 3.78062685 -10.28445108 -1.53891421 0 0 Z " fill="#FFDE33" transform="translate(132,369)"/>
<path d="M0 0 C6.07679742 4.11857944 11.21294134 8.85166232 16.37702942 14.05418396 C17.24264999 14.91693436 18.10827057 15.77968475 19.00012207 16.6685791 C20.81637518 18.48280218 22.62889137 20.30077336 24.43782043 22.12229919 C27.20007403 24.90065922 29.97802502 27.66259675 32.75788879 30.42332458 C34.527732 32.19514964 36.29664468 33.96790479 38.06452942 35.74168396 C38.89060196 36.56168381 39.7166745 37.38168365 40.56777954 38.22653198 C50.04701694 47.82196214 50.04701694 47.82196214 51.38484192 54.40574646 C51.24990378 59.29050721 50.69909245 62.797278 47.88874817 66.96434021 C43.3706811 71.14355225 39.51821011 72.494449 33.45324707 72.34484863 C25.0297374 71.09500744 18.09936543 62.61580884 12.40046692 56.87449646 C11.53484634 56.01174606 10.66922577 55.14899567 9.77737427 54.26010132 C7.96112116 52.44587824 6.14860496 50.62790706 4.3396759 48.80638123 C1.57742231 46.0280212 -1.20052868 43.26608367 -3.98039246 40.50535583 C-5.75023566 38.73353078 -7.51914834 36.96077563 -9.28703308 35.18699646 C-10.11310562 34.36699661 -10.93917816 33.54699677 -11.7902832 32.70214844 C-21.26952061 23.10671828 -21.26952061 23.10671828 -22.60734558 16.52293396 C-22.47240744 11.63817321 -21.92159611 8.13140242 -19.11125183 3.96434021 C-13.80452176 -0.94438511 -6.87177606 -3.37090159 0 0 Z " fill="#FFDE33" transform="translate(92.11125183105469,71.03565979003906)"/>
<path d="M0 0 C6.07679742 4.11857944 11.21294134 8.85166232 16.37702942 14.05418396 C17.24264999 14.91693436 18.10827057 15.77968475 19.00012207 16.6685791 C20.81637518 18.48280218 22.62889137 20.30077336 24.43782043 22.12229919 C27.20007403 24.90065922 29.97802502 27.66259675 32.75788879 30.42332458 C34.527732 32.19514964 36.29664468 33.96790479 38.06452942 35.74168396 C38.89060196 36.56168381 39.7166745 37.38168365 40.56777954 38.22653198 C50.04701694 47.82196214 50.04701694 47.82196214 51.38484192 54.40574646 C51.24990378 59.29050721 50.69909245 62.797278 47.88874817 66.96434021 C43.3706811 71.14355225 39.51821011 72.494449 33.45324707 72.34484863 C25.0297374 71.09500744 18.09936543 62.61580884 12.40046692 56.87449646 C11.53484634 56.01174606 10.66922577 55.14899567 9.77737427 54.26010132 C7.96112116 52.44587824 6.14860496 50.62790706 4.3396759 48.80638123 C1.57742231 46.0280212 -1.20052868 43.26608367 -3.98039246 40.50535583 C-5.75023566 38.73353078 -7.51914834 36.96077563 -9.28703308 35.18699646 C-10.11310562 34.36699661 -10.93917816 33.54699677 -11.7902832 32.70214844 C-21.26952061 23.10671828 -21.26952061 23.10671828 -22.60734558 16.52293396 C-22.47240744 11.63817321 -21.92159611 8.13140242 -19.11125183 3.96434021 C-13.80452176 -0.94438511 -6.87177606 -3.37090159 0 0 Z " fill="#FFBC33" transform="translate(391.1112518310547,370.03565979003906)"/>
<path d="M0 0 C4.71878688 1.69164058 7.20582817 3.86048618 10 8 C11.57774533 12.733236 12.23076546 17.49101407 9.96434021 22.11125183 C5.84576077 28.18804925 1.11267789 33.32419317 -4.08984375 38.48828125 C-4.95259415 39.35390182 -5.81534454 40.2195224 -6.70423889 41.1113739 C-8.51846197 42.92762701 -10.33643315 44.74014321 -12.15795898 46.54907227 C-14.93631901 49.31132586 -17.69825654 52.08927685 -20.45898438 54.86914062 C-22.23080943 56.63898383 -24.00356458 58.40789651 -25.77734375 60.17578125 C-26.5973436 61.00185379 -27.41734344 61.82792633 -28.26219177 62.67903137 C-37.85762193 72.15826878 -37.85762193 72.15826878 -44.44140625 73.49609375 C-49.326167 73.36115561 -52.83293779 72.81034428 -57 70 C-61.17921204 65.48193293 -62.53010879 61.62946194 -62.38050842 55.5644989 C-61.13066723 47.14098923 -52.65146863 40.21061726 -46.91015625 34.51171875 C-46.04740585 33.64609818 -45.18465546 32.7804776 -44.29576111 31.8886261 C-42.48153803 30.07237299 -40.66356685 28.25985679 -38.84204102 26.45092773 C-36.06368099 23.68867414 -33.30174346 20.91072315 -30.54101562 18.13085938 C-28.76919057 16.36101617 -26.99643542 14.59210349 -25.22265625 12.82421875 C-24.4026564 11.99814621 -23.58265656 11.17207367 -22.73780823 10.32096863 C-15.88861382 3.55471232 -10.06987923 -1.50680675 0 0 Z " fill="#FFBC33" transform="translate(431,70)"/>
<path d="M0 0 C4.60252929 2.18014545 6.78034191 4.47619002 9 9 C9.38768005 12.29429626 9.38768005 12.29429626 9.40405273 16.08178711 C9.41091599 16.77513657 9.41777924 17.46848602 9.42485046 18.18284607 C9.44308446 20.46455628 9.43928604 22.74557663 9.43359375 25.02734375 C9.43815731 26.62008385 9.44346341 28.21282197 9.44947815 29.80555725 C9.45840262 33.14022837 9.45599393 36.47465992 9.44604492 39.80932617 C9.43455775 44.0743197 9.45476552 48.33848497 9.48396206 52.60336971 C9.50234382 55.89174111 9.50202769 59.17991476 9.49632454 62.46832466 C9.49617156 64.04034143 9.50219697 65.6123718 9.51461601 67.18433952 C9.52956205 69.38635476 9.51882476 71.58684939 9.50170898 73.78881836 C9.50154282 75.03948593 9.50137665 76.2901535 9.50120544 77.57872009 C8.76742043 82.58761207 6.59050878 85.76467873 2.62109375 88.84765625 C-2.12829103 90.93568681 -6.92248151 90.61920957 -12 90 C-16.60252929 87.81985455 -18.78034191 85.52380998 -21 81 C-21.38768005 77.70570374 -21.38768005 77.70570374 -21.40405273 73.91821289 C-21.41091599 73.22486343 -21.41777924 72.53151398 -21.42485046 71.81715393 C-21.44308446 69.53544372 -21.43928604 67.25442337 -21.43359375 64.97265625 C-21.43815731 63.37991615 -21.44346341 61.78717803 -21.44947815 60.19444275 C-21.45840262 56.85977163 -21.45599393 53.52534008 -21.44604492 50.19067383 C-21.43455775 45.9256803 -21.45476552 41.66151503 -21.48396206 37.39663029 C-21.50234382 34.10825889 -21.50202769 30.82008524 -21.49632454 27.53167534 C-21.49617156 25.95965857 -21.50219697 24.3876282 -21.51461601 22.81566048 C-21.52956205 20.61364524 -21.51882476 18.41315061 -21.50170898 16.21118164 C-21.50154282 14.96051407 -21.50137665 13.7098465 -21.50120544 12.42127991 C-20.76742043 7.41238793 -18.59050878 4.23532127 -14.62109375 1.15234375 C-9.87170897 -0.93568681 -5.07751849 -0.61920957 0 0 Z " fill="#FFBC33" transform="translate(262,422)"/>
<path d="M0 0 C0.69334946 -0.00686325 1.38669891 -0.0137265 2.10105896 -0.02079773 C4.38276917 -0.03903173 6.66378952 -0.03523331 8.94555664 -0.02954102 C10.53829674 -0.03410458 12.13103486 -0.03941067 13.72377014 -0.04542542 C17.05844126 -0.05434989 20.39287281 -0.0519412 23.72753906 -0.04199219 C27.99253259 -0.03050502 32.25669786 -0.05071278 36.5215826 -0.07990932 C39.809954 -0.09829109 43.09812765 -0.09797495 46.38653755 -0.0922718 C47.95855432 -0.09211882 49.53058469 -0.09814423 51.10255241 -0.11056328 C53.30456765 -0.12550931 55.50506229 -0.11477202 57.70703125 -0.09765625 C59.58303261 -0.097407 59.58303261 -0.097407 61.49693298 -0.09715271 C66.50582496 0.63663231 69.68289162 2.81354395 72.76586914 6.78295898 C74.85389971 11.53234376 74.53742246 16.32653425 73.91821289 21.40405273 C71.73806744 26.00658202 69.44202287 28.18439464 64.91821289 30.40405273 C61.62391663 30.79173279 61.62391663 30.79173279 57.83642578 30.80810547 C57.14307632 30.81496872 56.44972687 30.82183197 55.73536682 30.8289032 C53.45365661 30.84713719 51.17263626 30.84333878 48.89086914 30.83764648 C47.29812904 30.84221005 45.70539092 30.84751614 44.11265564 30.85353088 C40.77798452 30.86245536 37.44355297 30.86004667 34.10888672 30.85009766 C29.84389319 30.83861049 25.57972792 30.85881825 21.31484318 30.88801479 C18.02647178 30.90639656 14.73829813 30.90608042 11.44988823 30.90037727 C9.87787146 30.90022429 8.30584109 30.9062497 6.73387337 30.91866875 C4.53185813 30.93361478 2.3313635 30.92287749 0.12939453 30.90576172 C-1.12127304 30.90559555 -2.37194061 30.90542938 -3.6605072 30.90525818 C-8.66939918 30.17147316 -11.84646584 27.99456151 -14.92944336 24.02514648 C-17.01747392 19.27576171 -16.70099668 14.48157122 -16.08178711 9.40405273 C-12.59757623 2.04849643 -7.88405193 0.03408142 0 0 Z " fill="#FFBC33" transform="translate(438.081787109375,240.595947265625)"/>
<path d="M0 0 C0.69334946 -0.00686325 1.38669891 -0.0137265 2.10105896 -0.02079773 C4.38276917 -0.03903173 6.66378952 -0.03523331 8.94555664 -0.02954102 C10.53829674 -0.03410458 12.13103486 -0.03941067 13.72377014 -0.04542542 C17.05844126 -0.05434989 20.39287281 -0.0519412 23.72753906 -0.04199219 C27.99253259 -0.03050502 32.25669786 -0.05071278 36.5215826 -0.07990932 C39.809954 -0.09829109 43.09812765 -0.09797495 46.38653755 -0.0922718 C47.95855432 -0.09211882 49.53058469 -0.09814423 51.10255241 -0.11056328 C53.30456765 -0.12550931 55.50506229 -0.11477202 57.70703125 -0.09765625 C59.58303261 -0.097407 59.58303261 -0.097407 61.49693298 -0.09715271 C66.50582496 0.63663231 69.68289162 2.81354395 72.76586914 6.78295898 C74.85389971 11.53234376 74.53742246 16.32653425 73.91821289 21.40405273 C71.73806744 26.00658202 69.44202287 28.18439464 64.91821289 30.40405273 C61.62391663 30.79173279 61.62391663 30.79173279 57.83642578 30.80810547 C57.14307632 30.81496872 56.44972687 30.82183197 55.73536682 30.8289032 C53.45365661 30.84713719 51.17263626 30.84333878 48.89086914 30.83764648 C47.29812904 30.84221005 45.70539092 30.84751614 44.11265564 30.85353088 C40.77798452 30.86245536 37.44355297 30.86004667 34.10888672 30.85009766 C29.84389319 30.83861049 25.57972792 30.85881825 21.31484318 30.88801479 C18.02647178 30.90639656 14.73829813 30.90608042 11.44988823 30.90037727 C9.87787146 30.90022429 8.30584109 30.9062497 6.73387337 30.91866875 C4.53185813 30.93361478 2.3313635 30.92287749 0.12939453 30.90576172 C-1.12127304 30.90559555 -2.37194061 30.90542938 -3.6605072 30.90525818 C-8.66939918 30.17147316 -11.84646584 27.99456151 -14.92944336 24.02514648 C-17.01747392 19.27576171 -16.70099668 14.48157122 -16.08178711 9.40405273 C-12.59757623 2.04849643 -7.88405193 0.03408142 0 0 Z " fill="#FFDE33" transform="translate(16.081787109375,240.595947265625)"/>
<path d="M0 0 C4.60252929 2.18014545 6.78034191 4.47619002 9 9 C9.38768005 12.29429626 9.38768005 12.29429626 9.40405273 16.08178711 C9.41091599 16.77513657 9.41777924 17.46848602 9.42485046 18.18284607 C9.44308446 20.46455628 9.43928604 22.74557663 9.43359375 25.02734375 C9.43815731 26.62008385 9.44346341 28.21282197 9.44947815 29.80555725 C9.45840262 33.14022837 9.45599393 36.47465992 9.44604492 39.80932617 C9.43455775 44.0743197 9.45476552 48.33848497 9.48396206 52.60336971 C9.50234382 55.89174111 9.50202769 59.17991476 9.49632454 62.46832466 C9.49617156 64.04034143 9.50219697 65.6123718 9.51461601 67.18433952 C9.52956205 69.38635476 9.51882476 71.58684939 9.50170898 73.78881836 C9.50154282 75.03948593 9.50137665 76.2901535 9.50120544 77.57872009 C8.76742043 82.58761207 6.59050878 85.76467873 2.62109375 88.84765625 C-2.12829103 90.93568681 -6.92248151 90.61920957 -12 90 C-16.60252929 87.81985455 -18.78034191 85.52380998 -21 81 C-21.38768005 77.70570374 -21.38768005 77.70570374 -21.40405273 73.91821289 C-21.41091599 73.22486343 -21.41777924 72.53151398 -21.42485046 71.81715393 C-21.44308446 69.53544372 -21.43928604 67.25442337 -21.43359375 64.97265625 C-21.43815731 63.37991615 -21.44346341 61.78717803 -21.44947815 60.19444275 C-21.45840262 56.85977163 -21.45599393 53.52534008 -21.44604492 50.19067383 C-21.43455775 45.9256803 -21.45476552 41.66151503 -21.48396206 37.39663029 C-21.50234382 34.10825889 -21.50202769 30.82008524 -21.49632454 27.53167534 C-21.49617156 25.95965857 -21.50219697 24.3876282 -21.51461601 22.81566048 C-21.52956205 20.61364524 -21.51882476 18.41315061 -21.50170898 16.21118164 C-21.50154282 14.96051407 -21.50137665 13.7098465 -21.50120544 12.42127991 C-20.76742043 7.41238793 -18.59050878 4.23532127 -14.62109375 1.15234375 C-9.87170897 -0.93568681 -5.07751849 -0.61920957 0 0 Z " fill="#FFBC33" transform="translate(262,0)"/>
<path d="M0 0 C0 29.7 0 59.4 0 90 C-6.21029673 90 -7.44462468 89.74553082 -12 86 C-15.03788972 81.94724296 -15.38238787 78.92994353 -15.40405273 73.91821289 C-15.41091599 73.22486343 -15.41777924 72.53151398 -15.42485046 71.81715393 C-15.44308446 69.53544372 -15.43928604 67.25442337 -15.43359375 64.97265625 C-15.43815731 63.37991615 -15.44346341 61.78717803 -15.44947815 60.19444275 C-15.45840262 56.85977163 -15.45599393 53.52534008 -15.44604492 50.19067383 C-15.43455775 45.9256803 -15.45476552 41.66151503 -15.48396206 37.39663029 C-15.50234382 34.10825889 -15.50202769 30.82008524 -15.49632454 27.53167534 C-15.49617156 25.95965857 -15.50219697 24.3876282 -15.51461601 22.81566048 C-15.52956205 20.61364524 -15.51882476 18.41315061 -15.50170898 16.21118164 C-15.50154282 14.96051407 -15.50137665 13.7098465 -15.50120544 12.42127991 C-14.76640159 7.40543321 -12.57184065 4.24092683 -8.625 1.125 C-6 0 -6 0 0 0 Z " fill="#FFDE33" transform="translate(256,422)"/>
<path d="M0 0 C0 29.7 0 59.4 0 90 C-6.21029673 90 -7.44462468 89.74553082 -12 86 C-15.03788972 81.94724296 -15.38238787 78.92994353 -15.40405273 73.91821289 C-15.41091599 73.22486343 -15.41777924 72.53151398 -15.42485046 71.81715393 C-15.44308446 69.53544372 -15.43928604 67.25442337 -15.43359375 64.97265625 C-15.43815731 63.37991615 -15.44346341 61.78717803 -15.44947815 60.19444275 C-15.45840262 56.85977163 -15.45599393 53.52534008 -15.44604492 50.19067383 C-15.43455775 45.9256803 -15.45476552 41.66151503 -15.48396206 37.39663029 C-15.50234382 34.10825889 -15.50202769 30.82008524 -15.49632454 27.53167534 C-15.49617156 25.95965857 -15.50219697 24.3876282 -15.51461601 22.81566048 C-15.52956205 20.61364524 -15.51882476 18.41315061 -15.50170898 16.21118164 C-15.50154282 14.96051407 -15.50137665 13.7098465 -15.50120544 12.42127991 C-14.76640159 7.40543321 -12.57184065 4.24092683 -8.625 1.125 C-6 0 -6 0 0 0 Z " fill="#FFDE33" transform="translate(256,0)"/>
</svg>
